<?xml version="1.0" encoding="utf-8"?>
<!-- Generator: Adobe Illustrator 22.0.0, SVG Export Plug-In . SVG Version: 6.00 Build 0)  -->
<svg version="1.1" id="Ebene_1" xmlns="http://www.w3.org/2000/svg" xmlns:xlink="http://www.w3.org/1999/xlink" x="0px" y="0px"
	 viewBox="0 0 170.1 56.7" style="enable-background:new 0 0 170.1 56.7;" xml:space="preserve">
<style type="text/css">
	.st0{fill:#5D87A1;}
	.st1{fill:#002B5C;}
</style>
<path class="st0" d="M34.9,41.6c0,1.3,0.6,2.1,1.8,2.1c0.7,0,1.1-0.2,1.6-0.7l0.6,0.5c-0.6,0.6-1.2,0.9-2.2,0.9
	c-1.6,0-2.6-0.9-2.6-3.1c0-1.9,0.9-3.1,2.5-3.1c1.5,0,2.5,1.1,2.5,2.9v0.4H34.9 M37.9,40c-0.2-0.5-0.8-0.9-1.4-0.9
	c-0.6,0-1.2,0.4-1.4,0.9c-0.1,0.3-0.2,0.5-0.2,1h3.2C38.1,40.5,38,40.3,37.9,40"/>
<polygon class="st0" points="43.9,44.4 42.5,42.1 41,44.4 40,44.4 42,41.3 40.1,38.4 41.1,38.4 42.5,40.6 43.8,38.4 44.9,38.4 
	43,41.3 45,44.4 "/>
<path class="st0" d="M48.8,44.5c-1.5,0-2.7-1-2.7-3.1c0-2,1.1-3.1,2.7-3.1c0.8,0,1.4,0.2,2,0.9l-0.6,0.6c-0.5-0.5-0.8-0.7-1.4-0.7
	c-0.6,0-1.1,0.2-1.4,0.7c-0.3,0.4-0.4,0.9-0.4,1.6c0,0.8,0.1,1.2,0.4,1.6c0.3,0.5,0.8,0.7,1.4,0.7c0.6,0,0.9-0.2,1.4-0.7l0.6,0.6
	C50.1,44.2,49.6,44.5,48.8,44.5"/>
<path class="st0" d="M52.8,41.6c0,1.3,0.6,2.1,1.8,2.1c0.7,0,1.1-0.2,1.6-0.7l0.6,0.5c-0.6,0.6-1.2,0.9-2.2,0.9
	c-1.6,0-2.6-0.9-2.6-3.1c0-1.9,0.9-3.1,2.5-3.1c1.5,0,2.5,1.1,2.5,2.9v0.4H52.8 M55.7,40c-0.2-0.5-0.8-0.9-1.4-0.9s-1.2,0.4-1.4,0.9
	c-0.1,0.3-0.2,0.5-0.2,1h3.2C55.9,40.5,55.9,40.3,55.7,40"/>
<path class="st0" d="M60.2,44.4c-1,0-1.5-0.7-1.5-1.6v-7.1h0.9v7c0,0.6,0.2,0.9,0.8,0.9h0.5v0.8H60.2"/>
<path class="st0" d="M63.6,44.4c-1,0-1.5-0.7-1.5-1.6v-7.1H63v7c0,0.6,0.2,0.9,0.8,0.9h0.5v0.8H63.6"/>
<path class="st0" d="M66.3,41.6c0,1.3,0.6,2.1,1.8,2.1c0.7,0,1.1-0.2,1.6-0.7l0.6,0.5c-0.6,0.6-1.2,0.9-2.2,0.9
	c-1.6,0-2.6-0.9-2.6-3.1c0-1.9,0.9-3.1,2.5-3.1c1.5,0,2.5,1.1,2.5,2.9v0.4H66.3 M69.3,40c-0.2-0.5-0.8-0.9-1.4-0.9
	c-0.6,0-1.2,0.4-1.4,0.9c-0.1,0.3-0.2,0.5-0.2,1h3.2C69.5,40.5,69.5,40.3,69.3,40"/>
<path class="st0" d="M76.2,44.4v-3.7c0-1.1-0.6-1.6-1.5-1.6c-0.9,0-1.5,0.5-1.5,1.6v3.7h-0.9v-6h0.9v0.7c0.4-0.5,1-0.7,1.7-0.7
	c0.6,0,1.2,0.2,1.5,0.6c0.4,0.4,0.6,1,0.6,1.7v3.8H76.2"/>
<path class="st0" d="M81.5,44.5c-1.5,0-2.7-1-2.7-3.1c0-2,1.1-3.1,2.7-3.1c0.8,0,1.4,0.2,2,0.9l-0.6,0.6c-0.5-0.5-0.8-0.7-1.4-0.7
	c-0.6,0-1.1,0.2-1.4,0.7c-0.3,0.4-0.4,0.9-0.4,1.6c0,0.8,0.1,1.2,0.4,1.6c0.3,0.5,0.8,0.7,1.4,0.7c0.6,0,0.9-0.2,1.4-0.7l0.6,0.6
	C82.9,44.2,82.3,44.5,81.5,44.5"/>
<path class="st0" d="M85.5,41.6c0,1.3,0.6,2.1,1.8,2.1c0.7,0,1.1-0.2,1.6-0.7l0.6,0.5c-0.6,0.6-1.2,0.9-2.2,0.9
	c-1.6,0-2.6-0.9-2.6-3.1c0-1.9,0.9-3.1,2.5-3.1c1.5,0,2.5,1.1,2.5,2.9v0.4H85.5 M88.5,40c-0.2-0.5-0.8-0.9-1.4-0.9
	c-0.6,0-1.2,0.4-1.4,0.9c-0.1,0.3-0.2,0.5-0.2,1h3.2C88.6,40.5,88.6,40.3,88.5,40"/>
<path class="st0" d="M96,39.1v5.3h-0.9v-5.3h-0.8v-0.7h0.8v-1.1c0-0.9,0.5-1.6,1.5-1.6h0.6v0.8h-0.5c-0.6,0-0.8,0.3-0.8,0.9v1.1h1.3
	v0.7H96"/>
<path class="st0" d="M102.3,43.8c-0.4,0.4-1,0.7-1.7,0.7c-0.7,0-1.3-0.3-1.7-0.7c-0.6-0.6-0.7-1.5-0.7-2.4c0-0.9,0.1-1.8,0.7-2.4
	c0.4-0.4,1-0.7,1.7-0.7c0.7,0,1.3,0.3,1.7,0.7c0.6,0.6,0.7,1.5,0.7,2.4C103,42.3,102.9,43.2,102.3,43.8 M101.7,39.5
	c-0.3-0.3-0.7-0.4-1.1-0.4c-0.4,0-0.8,0.2-1.1,0.4C99,40,99,40.7,99,41.4c0,0.7,0,1.4,0.5,1.9c0.3,0.3,0.7,0.4,1.1,0.4
	c0.4,0,0.8-0.2,1.1-0.4c0.4-0.4,0.5-1.2,0.5-1.9C102.1,40.7,102.1,40,101.7,39.5"/>
<path class="st0" d="M108.1,39.5c-0.3-0.3-0.6-0.4-1-0.4c-0.9,0-1.4,0.7-1.4,1.6v3.7h-0.9v-6h0.9v0.7c0.3-0.5,1-0.8,1.7-0.8
	c0.6,0,1,0.1,1.4,0.6L108.1,39.5"/>
<path class="st0" d="M114.1,44.4c-1,0-1.5-0.7-1.5-1.6v-7.1h0.9v7c0,0.6,0.2,0.9,0.8,0.9h0.5v0.8H114.1"/>
<path class="st0" d="M116.4,35.7h1v1h-1V35.7z M117.3,44.4h-0.9v-6h0.9V44.4z"/>
<path class="st0" d="M120.7,39.1v5.3h-0.9v-5.3H119v-0.7h0.8v-1.1c0-0.9,0.5-1.6,1.5-1.6h0.6v0.8h-0.5c-0.6,0-0.8,0.3-0.8,0.9v1.1
	h1.3v0.7H120.7"/>
<path class="st0" d="M123.6,41.6c0,1.3,0.6,2.1,1.8,2.1c0.7,0,1.1-0.2,1.6-0.7l0.6,0.5c-0.6,0.6-1.2,0.9-2.2,0.9
	c-1.6,0-2.6-0.9-2.6-3.1c0-1.9,0.9-3.1,2.5-3.1c1.5,0,2.5,1.1,2.5,2.9v0.4H123.6 M126.6,40c-0.2-0.5-0.8-0.9-1.4-0.9
	c-0.6,0-1.2,0.4-1.4,0.9c-0.1,0.3-0.2,0.5-0.2,1h3.2C126.7,40.5,126.7,40.3,126.6,40"/>
<path class="st1" d="M34,31.2V15.4h8.4c0.8,0,2.2,0.1,3.2,0.8c1,0.7,1.8,2,1.8,3.3c0,1.7-1,3.1-2.5,3.4v0c1.7,0.3,3.1,1.6,3.1,3.6
	c0,3.9-2.8,4.6-5.8,4.6H34 M38.9,21.4h2.4c0.8,0,1.4-0.3,1.4-1.3c0-1.2-0.9-1.3-1.7-1.3h-2.1V21.4z M38.9,27.7h2.5
	c0.8,0,1.6-0.3,1.6-1.4c0-1.2-1-1.5-1.8-1.5h-2.3V27.7z"/>
<rect x="50.1" y="15.4" class="st1" width="5" height="15.8"/>
<path class="st1" d="M72.7,23.3c0,4.6-2.8,8.3-7.7,8.3c-4.9,0-7.7-3.7-7.7-8.3c0-4.8,2.8-8.3,7.7-8.3C69.9,15,72.7,18.5,72.7,23.3
	 M62.6,23.3c0,1.6,0.2,4.6,2.4,4.6c2.3,0,2.4-3,2.4-4.6s-0.2-4.7-2.4-4.7C62.8,18.6,62.6,21.7,62.6,23.3"/>
<polygon class="st1" points="82,19.2 82,31.2 77,31.2 77,19.2 73.1,19.2 73.1,15.4 85.8,15.4 85.8,19.2 "/>
<path class="st1" d="M102.2,31.2h-5.7l-2.7-5.9h-1.2v5.9h-5V15.4h7.7c1.4,0,2.9,0.2,4.1,1c1.3,0.8,2,2.2,2,3.8
	c0,2.1-0.9,3.5-2.8,4.3L102.2,31.2 M92.6,21.9h1.3c1.1,0,2.4-0.3,2.4-1.7c0-0.5-0.3-1-0.8-1.3c-0.4-0.2-0.9-0.2-1.4-0.2h-1.5V21.9z"
	/>
<path class="st1" d="M118.4,23.3c0,4.6-2.8,8.3-7.7,8.3c-4.9,0-7.7-3.7-7.7-8.3c0-4.8,2.8-8.3,7.7-8.3
	C115.6,15,118.4,18.5,118.4,23.3 M108.2,23.3c0,1.6,0.2,4.6,2.4,4.6c2.3,0,2.4-3,2.4-4.6s-0.2-4.7-2.4-4.7
	C108.5,18.6,108.2,21.7,108.2,23.3"/>
<rect x="138.2" y="15.4" class="st1" width="5" height="15.8"/>
<g>
	<g>
		<g>
			<polygon class="st1" points="156.2,21.2 160.6,15.4 155.2,15.4 151.4,20.8 151.4,15.4 146.4,15.4 146.4,15.4 146.4,31.2 
				146.4,31.2 151.4,31.2 151.4,27 152.7,25.2 155.5,31.2 161.3,31.2 			"/>
		</g>
	</g>
</g>
<path class="st1" d="M135,31.2h-5.2l-4.4-8.8c-0.1-0.2-0.4-0.9-0.4-0.9s0.1,1.1,0.1,1.6v8.1h-4.5V15.4h5.8l3.8,7.6
	c0.1,0.2,0.5,1.1,0.5,1.1s-0.1-1.1-0.1-1.6l0-7.1h4.5V31.2z"/>
<g>
	<path class="st0" d="M21.3,31.4c-1.6,1.1-3.2,1.6-5.2,1.8v-6h8.4C23.9,28.9,22.9,30.3,21.3,31.4L21.3,31.4z M9.7,31.4
		c-1.6-1.1-2.6-2.5-3.3-4.3h8.5v6C12.9,33.1,11.3,32.5,9.7,31.4L9.7,31.4z"/>
	<path class="st0" d="M19.2,19.6c0.3-0.5,0.8-0.8,1.4-0.8c0.7,0,1.2,0.3,1.5,0.8c0.3,0.5,0.4,1.1,0.4,1.7c-0.1,1.1-0.6,2.4-1.9,2.4
		c-0.6-0.1-1-0.3-1.3-0.8c-0.3-0.5-0.4-1-0.5-1.6C18.8,20.6,18.9,20.1,19.2,19.6L19.2,19.6z M18.2,23.7c0.6,0.7,1.4,1,2.4,1.1
		c2.1,0,3.4-1.6,3.5-3.6c0-1-0.3-1.9-1-2.6c-0.6-0.7-1.5-1.1-2.5-1.1c-1,0-1.8,0.4-2.5,1.1c-0.7,0.7-1,1.6-1,2.6
		C17.2,22.2,17.5,23,18.2,23.7L18.2,23.7z M9.6,20.6v-1.7h1.6c0.5,0,0.9,0.3,0.9,0.8c0,0.3-0.1,0.5-0.3,0.6
		c-0.2,0.2-0.4,0.2-0.7,0.3H9.6L9.6,20.6z M9.6,23.7v-2h1.6c0.6,0,1.1,0.4,1.1,1c0,0.7-0.5,1.1-1.2,1.1H9.6L9.6,23.7z M8.1,17.8v6.9
		h3.4c1.4,0,2.5-0.7,2.5-2c0-1-0.8-1.6-1.4-1.7c0.4-0.1,1.1-0.6,1.1-1.5c0-1.2-0.9-1.7-2-1.7H8.1L8.1,17.8z M6,26L6,26
		c-0.3-0.9-0.4-1.8-0.4-2.6c0-3.4,1.6-6.5,4.4-8.3c1.5-1,3-1.4,4.8-1.5v11.2h1.3l0-11.3c1.8,0.1,3.3,0.5,4.8,1.5
		c2.9,1.9,4.4,5,4.4,8.4c0,0.9-0.1,1.8-0.4,2.6H6L6,26z"/>
</g>
</svg>
